<?xml version="1.0" encoding="UTF-8"?>
<svg id="Layer_1" xmlns="http://www.w3.org/2000/svg" version="1.1" viewBox="0 0 364.1 601.6">
  <!-- Generator: Adobe Illustrator 30.1.0, SVG Export Plug-In . SVG Version: 2.1.1 Build 136)  -->
  <defs>
    <style>
      .st0 {
        fill: #111;
      }

      .st1 {
        fill: none;
        stroke: #111;
        stroke-linecap: round;
        stroke-linejoin: round;
        stroke-width: 21.6px;
      }
    </style>
  </defs>
  <path class="st1" d="M45.3,248.6c-32-50.1-25.9-114.9.9-161.5S124.7,12.8,175.7,13.7c91.5-2.6,153.7,75.1,169.3,160.6,14.7,78.6-10.4,168.4-54.4,225.4-44.9,57-88.1,104.7-132.1,156.3-31.8,36.2-68.2,40.6-101,23.3-30.2-15.5-44-43.2-44-70.8M267.5,133.7c-19.9-44-59.9-63.9-98.7-56.1-44.9,6.9-76,41.4-82.9,77.7-5,28.1,4.4,59.4,20.3,81.7M177.8,375.1c-37.1-3.5-56.5,21.1-80.7,53.1-14.7,19.9-31.4,25.6-43.5,20.6-22.3-9.5-20.4-34.4-9.2-67.2"/>
  <ellipse class="st0" cx="236.8" cy="280.4" rx="41.3" ry="58.9"/>
  <circle class="st1" cx="191.2" cy="280.4" r="95.6"/>
</svg>